<svg viewBox="0 0 380 200" xmlns="http://www.w3.org/2000/svg">
  <!-- Background -->
  <rect width="380" height="200" fill="#162032"/>
  <!-- Depth circles -->
  <circle cx="345" cy="175" r="135" fill="#0d1b2a" opacity="0.5"/>
  <circle cx="28" cy="22" r="82" fill="#0d1b2a" opacity="0.42"/>
  <!-- Spotlight from top-left -->
  <polygon points="0,0 95,0 230,200 -50,200" fill="#c9a84c" opacity="0.05"/>
  <!-- Radial glow -->
  <circle cx="148" cy="100" r="115" fill="#c9a84c" opacity="0.04"/>

  <!-- Clipboard body (cream) -->
  <rect x="20" y="28" width="142" height="160" rx="9" fill="#f5f0e8"/>
  <rect x="20" y="28" width="142" height="160" rx="9" fill="none" stroke="#ddd6c8" stroke-width="1"/>
  <!-- Clip ring at top -->
  <rect x="71" y="20" width="40" height="19" rx="5" fill="#c9a84c"/>
  <rect x="80" y="16" width="22" height="12" rx="4" fill="#b8942d"/>

  <!-- Table header row (gold) -->
  <rect x="28" y="47" width="126" height="16" rx="2" fill="#c9a84c"/>
  <!-- Header text stubs -->
  <rect x="32" y="52" width="14" height="4" rx="1" fill="rgba(255,255,255,0.85)"/>
  <rect x="52" y="52" width="22" height="4" rx="1" fill="rgba(255,255,255,0.85)"/>
  <rect x="82" y="52" width="18" height="4" rx="1" fill="rgba(255,255,255,0.85)"/>
  <rect x="108" y="52" width="38" height="4" rx="1" fill="rgba(255,255,255,0.85)"/>

  <!-- Row 1 -->
  <rect x="28" y="64" width="126" height="19" fill="#ddd7cd"/>
  <circle cx="36" cy="73" r="5.5" fill="#c9a84c"/>
  <path d="M33.5 73.5 L36 76 L40 70.5" stroke="#162032" stroke-width="1.6" fill="none" stroke-linecap="round" stroke-linejoin="round"/>
  <rect x="47" y="69" width="28" height="4" rx="1" fill="rgba(22,32,50,0.45)"/>
  <rect x="82" y="69" width="20" height="4" rx="1" fill="rgba(22,32,50,0.4)"/>
  <rect x="109" y="69" width="38" height="4" rx="1" fill="rgba(22,32,50,0.35)"/>

  <!-- Row 2 -->
  <rect x="28" y="84" width="126" height="19" fill="#ece7dd"/>
  <circle cx="36" cy="93" r="5.5" fill="#c9a84c"/>
  <path d="M33.5 93.5 L36 96 L40 90.5" stroke="#162032" stroke-width="1.6" fill="none" stroke-linecap="round" stroke-linejoin="round"/>
  <rect x="47" y="89" width="32" height="4" rx="1" fill="rgba(22,32,50,0.45)"/>
  <rect x="86" y="89" width="16" height="4" rx="1" fill="rgba(22,32,50,0.38)"/>
  <rect x="109" y="89" width="38" height="4" rx="1" fill="rgba(22,32,50,0.35)"/>

  <!-- Row 3 -->
  <rect x="28" y="104" width="126" height="19" fill="#ddd7cd"/>
  <circle cx="36" cy="113" r="5.5" fill="#c9a84c"/>
  <path d="M33.5 113.5 L36 116 L40 110.5" stroke="#162032" stroke-width="1.6" fill="none" stroke-linecap="round" stroke-linejoin="round"/>
  <rect x="47" y="109" width="22" height="4" rx="1" fill="rgba(22,32,50,0.45)"/>
  <rect x="76" y="109" width="30" height="4" rx="1" fill="rgba(22,32,50,0.4)"/>
  <rect x="113" y="109" width="34" height="4" rx="1" fill="rgba(22,32,50,0.35)"/>

  <!-- Row 4 -->
  <rect x="28" y="124" width="126" height="19" fill="#ece7dd"/>
  <circle cx="36" cy="133" r="5.5" fill="#c9a84c"/>
  <path d="M33.5 133.5 L36 136 L40 130.5" stroke="#162032" stroke-width="1.6" fill="none" stroke-linecap="round" stroke-linejoin="round"/>
  <rect x="47" y="129" width="36" height="4" rx="1" fill="rgba(22,32,50,0.45)"/>
  <rect x="90" y="129" width="14" height="4" rx="1" fill="rgba(22,32,50,0.38)"/>
  <rect x="111" y="129" width="36" height="4" rx="1" fill="rgba(22,32,50,0.35)"/>

  <!-- Row 5 (faded) -->
  <rect x="28" y="144" width="126" height="19" fill="#ddd7cd" opacity="0.6"/>
  <rect x="47" y="150" width="26" height="4" rx="1" fill="rgba(22,32,50,0.28)"/>
  <rect x="80" y="150" width="22" height="4" rx="1" fill="rgba(22,32,50,0.22)"/>

  <!-- Column dividers -->
  <line x1="44" y1="47" x2="44" y2="163" stroke="rgba(22,32,50,0.12)" stroke-width="0.8"/>
  <line x1="80" y1="47" x2="80" y2="163" stroke="rgba(22,32,50,0.12)" stroke-width="0.8"/>
  <line x1="108" y1="47" x2="108" y2="163" stroke="rgba(22,32,50,0.12)" stroke-width="0.8"/>

  <!-- Camera on tripod (upper right background) -->
  <rect x="306" y="25" width="46" height="31" rx="6" fill="#1e2f45" stroke="#2c3e50" stroke-width="1.2"/>
  <rect x="320" y="19" width="18" height="9" rx="3" fill="#2c3e50"/>
  <circle cx="329" cy="40" r="13" fill="#0d1b2a" stroke="#2c3e50" stroke-width="1.5"/>
  <circle cx="329" cy="40" r="8" fill="#162032"/>
  <circle cx="329" cy="40" r="3.5" fill="#0a111a"/>
  <circle cx="326" cy="37" r="1.5" fill="rgba(255,255,255,0.1)"/>
  <line x1="316" y1="56" x2="300" y2="88" stroke="#2c3e50" stroke-width="2.5" stroke-linecap="round"/>
  <line x1="329" y1="56" x2="329" y2="90" stroke="#2c3e50" stroke-width="2.5" stroke-linecap="round"/>
  <line x1="342" y1="56" x2="358" y2="88" stroke="#2c3e50" stroke-width="2.5" stroke-linecap="round"/>
  <circle cx="300" cy="89" r="3" fill="#1e2f45"/>
  <circle cx="329" cy="90" r="3" fill="#1e2f45"/>
  <circle cx="358" cy="89" r="3" fill="#1e2f45"/>

  <!-- Filmmaker character (pointing at clipboard) -->
  <!-- Hair back -->
  <ellipse cx="240" cy="68" rx="23" ry="15" fill="#3d2b1f"/>
  <!-- Head -->
  <circle cx="240" cy="72" r="20" fill="#d4956a"/>
  <!-- Hair front -->
  <path d="M221 65 Q226 51 240 53 Q254 51 259 65" fill="#3d2b1f"/>
  <!-- Eyes -->
  <circle cx="234" cy="70" r="2.5" fill="#2c1a0e"/>
  <circle cx="246" cy="70" r="2.5" fill="#2c1a0e"/>
  <!-- Mouth -->
  <path d="M235 78 Q240 82 245 78" stroke="#bf7050" stroke-width="1.2" fill="none" stroke-linecap="round"/>
  <!-- Body -->
  <rect x="222" y="91" width="36" height="54" rx="14" fill="#2a7f7f"/>
  <!-- Left arm pointing at clipboard -->
  <path d="M222 102 Q198 108 170 112" stroke="#d4956a" stroke-width="11" fill="none" stroke-linecap="round"/>
  <circle cx="170" cy="112" r="6" fill="#d4956a"/>
  <!-- Right arm with pencil -->
  <path d="M258 102 Q274 94 283 86" stroke="#d4956a" stroke-width="11" fill="none" stroke-linecap="round"/>
  <!-- Pencil -->
  <rect x="275" y="74" width="5" height="22" rx="2" transform="rotate(-38 275 74)" fill="#c9a84c"/>
  <polygon points="278,92 283,92 280.5,100" transform="rotate(-38 280 94)" fill="#f5f0e8"/>
  <!-- Legs -->
  <rect x="226" y="143" width="13" height="33" rx="6" fill="#1e2f45"/>
  <rect x="243" y="143" width="13" height="33" rx="6" fill="#1e2f45"/>
  <rect x="222" y="171" width="17" height="8" rx="4" fill="#0d1b2a"/>
  <rect x="240" y="171" width="17" height="8" rx="4" fill="#0d1b2a"/>

  <!-- Gold stars -->
  <text x="290" y="158" font-size="22" fill="#c9a84c" opacity="0.44" font-family="serif">★</text>
  <text x="62" y="196" font-size="15" fill="#c9a84c" opacity="0.38" font-family="serif">★</text>
</svg>
